<?xml version="1.0" encoding="utf-8"?>
<!-- Generator: Adobe Illustrator 19.2.1, SVG Export Plug-In . SVG Version: 6.00 Build 0)  -->
<svg version="1.1" id="Layer_1" xmlns="http://www.w3.org/2000/svg" xmlns:xlink="http://www.w3.org/1999/xlink" x="0px" y="0px"
	 viewBox="0 0 1860.8 475" style="enable-background:new 0 0 1860.8 475;" xml:space="preserve">
<style type="text/css">
	.st0{fill:#4E4E4E;}
	.st1{fill:#F37726;}
</style>
<title>fulllogo-greytext-orangebody-greymoons (1)</title>
<desc>Created with Sketch.</desc>
<g id="Canvas">
	<g id="logo">
		<g id="Group" transform="translate(480.136401, 64.271493)">
			<g id="g">
				<!-- q -->
				<g id="path" transform="translate(0.000000, 58.875566)">
					<g id="path0-fill">
						<g id="path0_fill-link" transform="translate(-1500, -180)">
							<path transform="scale(9.5)" id="path0_fill" class="st0" d="M135.791,52.752c0,0.225-0.208,0.336-0.624,0.336c-0.191,0-0.354-0.017-0.479-0.048l-5.76-0.097
								c-0.386,0-0.882,0.023-1.488,0.072c-0.608,0.048-1.024,0.071-1.248,0.071h-0.433c-0.319,0-0.479-0.111-0.479-0.338
								c0-0.256,0.287-0.385,0.863-0.385c1.407-0.033,2.191-0.161,2.353-0.385c0.128-0.13,0.192-1.237,0.192-3.324v-9.201
								c-1.377,1.505-3.09,2.256-5.137,2.256c-2.561,0-4.729-1.048-6.505-3.144c-1.774-2.096-2.663-4.681-2.663-7.752
								c0-3.2,0.991-5.864,2.977-7.992c1.982-2.128,4.479-3.192,7.488-3.192c1.022,0,2.127,0.192,3.312,0.576
								c0.896,0.288,1.536,0.433,1.92,0.433c0.769,0,1.296-0.168,1.584-0.505c0.288-0.336,0.496-0.504,0.624-0.504
								c0.256,0,0.384,0.273,0.384,0.817v31.005c0,0.513,0.386,0.785,1.152,0.817C135.134,52.336,135.791,52.495,135.791,52.752z
								 M128.687,33.186c0-5.203-0.023-8.276-0.071-9.219c-0.048-0.941-0.23-1.636-0.55-2.083c-0.699-0.956-1.832-1.436-3.392-1.436
								c-3.948,0-5.924,3.512-5.924,10.535c0,3.097,0.479,5.499,1.435,7.207s2.293,2.562,4.012,2.562c0.892,0,1.729-0.255,2.508-0.766
								s1.33-1.149,1.648-1.916C128.575,37.527,128.687,35.899,128.687,33.186z"/>
						</g>
					</g>
				</g>
				<!-- u -->
				<g id="path_1_" transform="translate(300.0, 56.837104)">
					<g id="path1-fill">
						<g id="path1_fill-link" transform="translate(-750, -120)">
							<path transform="scale(8.0)" id="path1_fill" class="st0" d="M54.432,41.135V37.2h-0.097c-0.863,1.535-1.968,2.663-3.312,3.384c-1.344,0.721-2.928,1.08-4.752,1.08
								c-1.632,0-2.993-0.217-4.08-0.647c-1.089-0.433-1.968-1.049-2.64-1.849c-0.673-0.8-1.145-1.752-1.416-2.855
								c-0.272-1.104-0.408-2.328-0.408-3.672V16.32h4.08v16.799c0,1.536,0.447,2.753,1.344,3.648s2.128,1.344,3.696,1.344
								c1.248,0,2.327-0.191,3.239-0.575c0.912-0.385,1.672-0.928,2.28-1.633c0.606-0.703,1.062-1.527,1.367-2.472
								c0.305-0.943,0.456-1.977,0.456-3.097V16.32h4.08v24.815H54.432z"/>
						</g>
					</g>
				</g>
				<!-- a -->
				<g id="path_2_" transform="translate(590.013322, 53.479638)">
					<g id="path2-fill">
						<g id="path2_fill-link" transform="translate(-750, -120)">
							<path transform="scale(8.0)" id="path2_fill" class="st0" d="M53.52,41.664c-1.056,0-1.896-0.296-2.52-0.888s-0.937-1.561-0.937-2.904c-1.121,1.344-2.424,2.312-3.912,2.904
									c-1.488,0.592-3.096,0.888-4.824,0.888c-1.121,0-2.177-0.12-3.168-0.359c-0.992-0.24-1.865-0.641-2.616-1.2
									c-0.752-0.56-1.344-1.279-1.776-2.16c-0.432-0.88-0.648-1.944-0.648-3.192c0-1.408,0.24-2.56,0.72-3.456
									c0.48-0.896,1.111-1.624,1.896-2.184c0.784-0.561,1.68-0.984,2.688-1.272c1.008-0.288,2.04-0.527,3.096-0.72
									c1.12-0.223,2.184-0.392,3.192-0.504s1.896-0.271,2.664-0.48c0.768-0.207,1.375-0.512,1.824-0.911
									c0.448-0.399,0.672-0.984,0.672-1.752c0-0.896-0.168-1.615-0.504-2.16c-0.336-0.543-0.768-0.96-1.296-1.248
									c-0.528-0.288-1.121-0.48-1.776-0.576c-0.656-0.096-1.304-0.145-1.944-0.145c-1.728,0-3.168,0.329-4.32,0.984
									c-1.152,0.656-1.776,1.896-1.872,3.72h-4.08c0.064-1.535,0.384-2.832,0.96-3.888s1.344-1.912,2.304-2.568
									c0.96-0.655,2.064-1.128,3.312-1.416c1.248-0.287,2.56-0.432,3.936-0.432c1.12,0,2.232,0.081,3.336,0.24
									c1.104,0.16,2.104,0.488,3,0.983c0.896,0.497,1.615,1.192,2.16,2.089c0.544,0.896,0.815,2.063,0.815,3.504v12.768
									c0,0.96,0.056,1.665,0.168,2.112c0.112,0.448,0.488,0.672,1.128,0.672c0.353,0,0.769-0.08,1.248-0.24v3.168
									C55.743,41.455,54.768,41.664,53.52,41.664z M47.808,29.16c-0.833,0.176-1.704,0.32-2.616,0.432
									c-0.912,0.112-1.832,0.24-2.76,0.385c-0.929,0.144-1.76,0.376-2.496,0.695c-0.736,0.32-1.336,0.776-1.8,1.368
									c-0.464,0.593-0.696,1.4-0.696,2.424c0,0.672,0.136,1.24,0.408,1.704c0.271,0.464,0.624,0.84,1.056,1.128
									c0.432,0.288,0.943,0.497,1.536,0.624c0.592,0.128,1.192,0.192,1.8,0.192c1.344,0,2.496-0.184,3.456-0.552
									c0.96-0.367,1.744-0.832,2.352-1.393c0.608-0.56,1.056-1.168,1.344-1.824c0.288-0.654,0.432-1.271,0.432-1.848V28.32
									C49.312,28.704,48.639,28.984,47.808,29.16z"/>
						</g>
					</g>
				</g>
				<!-- n -->
				<g id="path_3_" transform="translate(806.740726, 56.837104)">
					<g id="path3-fill">
						<g id="path3_fill-link" transform="translate(-710, -120)">
							<path transform="scale(8.0)" id="path3_fill" class="st0" d="M41.567,16.32v3.936h0.097c1.695-3.008,4.384-4.512,8.063-4.512c1.632,0,2.992,0.224,4.08,0.672
c1.088,0.449,1.969,1.073,2.642,1.872c0.672,0.8,1.143,1.752,1.416,2.856c0.271,1.104,0.407,2.328,0.407,3.672v16.319h-4.081v-16.8
c0-1.536-0.448-2.752-1.344-3.647s-2.128-1.345-3.696-1.345c-1.248,0-2.327,0.192-3.239,0.576c-0.912,0.385-1.673,0.929-2.28,1.632
c-0.608,0.704-1.064,1.528-1.368,2.473c-0.304,0.943-0.456,1.976-0.456,3.096v14.016h-4.08V16.32H41.567z"/>
						</g>
					</g>
				</g>
				<!-- t -->
				<g id="path_4_" transform="translate(1100, 0.000000)">
					<g id="path4-fill">
						<g id="path4_fill-link" transform="translate(1.464050, 0.378914)">
							<path id="path4_fill" class="st0" d="M-413.7,0v58.3h52v28.2h-52V196c0,25,7,39.5,27.3,39.5c7.1,0.1,14.2-0.7,21.1-2.5
								l1.7,27.7c-10.3,3.7-21.3,5.4-32.2,5c-7.3,0.4-14.6-0.7-21.3-3.4c-6.8-2.7-12.9-6.8-17.9-12.1c-10.3-10.9-14.1-29-14.1-52.9
								V86.5h-31V58.3h31V9.6L-413.7,0L-413.7,0z"/>
						</g>
					</g>
				</g>
			</g>
		</g>
	</g>
</g>
<path id="quantlab" class="st1" d="M1352.3,326.2h37V28h-37V326.2z M1604.8,326.2c-2.5-13.9-3.4-31.1-3.4-48.7v-76
	c0-40.7-15.1-83.1-77.3-83.1c-25.6,0-50,7.1-66.8,18.1l8.4,24.4c14.3-9.2,34-15.1,53-15.1c41.6,0,46.2,30.2,46.2,47v4.2
	c-78.6-0.4-122.3,26.5-122.3,75.6c0,29.4,21,58.4,62.2,58.4c29,0,50.9-14.3,62.2-30.2h1.3l2.9,25.6H1604.8z M1565.7,257.7
	c0,3.8-0.8,8-2.1,11.8c-5.9,17.2-22.7,34-49.2,34c-18.9,0-34.9-11.3-34.9-35.3c0-39.5,45.8-46.6,86.2-45.8V257.7z M1698.5,326.2
	l1.7-33.6h1.3c15.1,26.9,38.7,38.2,68.1,38.2c45.4,0,91.2-36.1,91.2-108.8c0.4-61.7-35.3-103.7-85.7-103.7
	c-32.8,0-56.3,14.7-69.3,37.4h-0.8V28h-36.6v245.7c0,18.1-0.8,38.6-1.7,52.5H1698.5z M1704.8,208.2c0-5.9,1.3-10.9,2.1-15.1
	c7.6-28.1,31.1-45.4,56.3-45.4c39.5,0,60.5,34.9,60.5,75.6c0,46.6-23.1,78.1-61.8,78.1c-26.9,0-48.3-17.6-55.5-43.3
	c-0.8-4.2-1.7-8.8-1.7-13.4V208.2z"/>
</svg>
