<?xml version="1.0" encoding="utf-8"?>
<!-- Generator: Adobe Illustrator 19.1.0, SVG Export Plug-In . SVG Version: 6.00 Build 0)  -->
<!DOCTYPE svg PUBLIC "-//W3C//DTD SVG 1.1//EN" "http://www.w3.org/Graphics/SVG/1.1/DTD/svg11.dtd">
<svg version="1.1" id="Layer_1" xmlns="http://www.w3.org/2000/svg" xmlns:xlink="http://www.w3.org/1999/xlink" x="0px" y="0px"
	 viewBox="-799.2 498.3 64 64" style="enable-background:new -799.2 498.3 64 64;" xml:space="preserve">
<style type="text/css">
	.st0{fill:#0094D9;}
</style>
<g>
	<path class="st0" d="M-763.5,534.6l-8.7-0.2v-12.9l3.1-0.1V532l5.6,0.1V534.6z M-775,536.3c-1.9-0.6-3.4-1.2-5.1-1.9
		c-0.3-0.1-0.6-0.2-0.9-0.2c-2.8-0.3-5.4-2.3-5.4-6.3c0-3.6,2.3-6.4,6-6.5c3.9-0.1,6.1,2.8,6.1,6.3c0,2.9-1.4,4.9-3.1,5.6v0.1
		c1,0.3,2.1,0.6,3.2,0.8L-775,536.3z M-792.4,533.9c-1.3,0-2.6-0.4-3.2-0.8l0.5-2.2c0.7,0.4,1.7,0.8,2.8,0.8c1.2,0,1.8-0.5,1.8-1.3
		c0-0.7-0.6-1.2-1.9-1.7c-1.9-0.7-3.1-1.8-3.1-3.5c0-2,1.6-3.6,4.3-3.6c1.3,0,2.3,0.2,3,0.5l-0.6,2.2c-0.4-0.1-1.2-0.4-2.4-0.4
		c-1.1,0-1.7,0.6-1.7,1.2c0,0.8,0.6,1.1,2.1,1.7c2.1,0.8,3.1,1.9,3.1,3.6C-787.6,532.3-789.2,534.1-792.4,533.9 M-760,506.5
		c0.1,0,0.2,0,0.3,0h19.8c1,0,1.8,0.8,1.8,1.7v43.9c0,0.9-0.8,1.7-1.8,1.7h-19.8c-0.1,0-0.2,0-0.3,0C-760,553.7-760,506.5-760,506.5
		z M-760,556.1c0.1,0,0.2,0,0.3,0h19.8c2.3,0,4.2-1.8,4.2-4v-43.9c0-2.2-1.9-4-4.2-4h-19.8c-0.1,0-0.2,0-0.3,0V499l-38.6,4.9v52.5
		l38.6,5.1V556.1z"/>
	<path id="XMLID_5_" class="st0" d="M-780.4,523.7c-1.9,0-3,1.9-3,4.2c0,2.3,1.1,4.1,3,4.2c1.9,0,3.1-1.8,3.1-4.2
		S-778.4,523.7-780.4,523.7"/>
	<path class="st0" d="M-757.5,534.8c1.4,1.2,4.2,2,7.4,2c3.2,0,6-0.8,7.4-2v2.1c0,1.3-3,2.8-7.4,2.8c-4.4,0-7.4-1.5-7.4-2.8V534.8z
		 M-757.5,530.6c1.4,1.2,4.2,2,7.4,2c3.2,0,6-0.8,7.4-2v2.2c0,1.3-3,2.8-7.4,2.8c-4.4,0-7.4-1.5-7.4-2.8V530.6z M-757.5,526.6
		c1.3,1.1,4.4,1.6,7.4,1.6s6.1-0.6,7.4-1.6v1.9c0,1.3-3,2.8-7.4,2.8c-4.4,0-7.4-1.5-7.4-2.8V526.6z M-750.1,540.7
		c4.7,0,8.3-1.6,8.3-3.6v-2.4c0-0.3-0.1-0.7-0.3-1l0,0c0.2-0.3,0.3-0.6,0.3-1v-2.3c0-0.3-0.1-0.7-0.3-1l0,0c0.2-0.3,0.3-0.7,0.3-1
		v-2.3c0-0.3-0.1-0.6-0.3-0.9l0,0c0.1-0.1,0.1-0.3,0.1-0.4c0-1.8-4.2-2.8-8.1-2.8c-3.9,0-8.1,1-8.1,2.8c0,0.2,0,0.3,0.1,0.4l0,0
		c-0.2,0.3-0.3,0.6-0.3,0.9v2.3c0,0.4,0.1,0.7,0.3,1l0,0c-0.2,0.3-0.3,0.7-0.3,1v2.3c0,0.3,0.1,0.7,0.3,1l0,0
		c-0.2,0.3-0.3,0.7-0.3,1v2.2C-758.4,539.1-754.9,540.7-750.1,540.7"/>
</g>
</svg>
