<?xml version="1.0" encoding="UTF-8" standalone="no"?>
<svg width="2340px" height="475px" viewBox="0 0 2340 475" version="1.1" xmlns="http://www.w3.org/2000/svg" xmlns:xlink="http://www.w3.org/1999/xlink">
    <!-- Generator: Sketch 39.1 (31720) - http://www.bohemiancoding.com/sketch -->
    <title>fulllogo-greytext-orangebody-greymoons (1)</title>
    <desc>Created with Sketch.</desc>
    <defs></defs>
    <g id="Page-1" stroke="none" stroke-width="1" fill="none" fill-rule="evenodd">
        <g id="fulllogo-greytext-orangebody-greymoons-(1)" transform="translate(-1.000000, 0.000000)">
            <g id="logo.svg">
                <g id="Canvas">
                    <g id="logo">
                        <g id="Group" transform="translate(480.136401, 64.271493)" fill="#4E4E4E">
                            <g id="g">
                              <!-- q -->
                              <g id="path" transform="translate(-1050.0, -120.0)">
                                  <g id="path0-fill">
                                      <g id="path0_fill-link" transform="translate(0.0, 0.0)">
                                        <path transform="scale(9.5)" d="M135.791,52.752c0,0.225-0.208,0.336-0.624,0.336c-0.191,0-0.354-0.017-0.479-0.048l-5.76-0.097
                                      		c-0.386,0-0.882,0.023-1.488,0.072c-0.608,0.048-1.024,0.071-1.248,0.071h-0.433c-0.319,0-0.479-0.111-0.479-0.338
                                      		c0-0.256,0.287-0.385,0.863-0.385c1.407-0.033,2.191-0.161,2.353-0.385c0.128-0.13,0.192-1.237,0.192-3.324v-9.201
                                      		c-1.377,1.505-3.09,2.256-5.137,2.256c-2.561,0-4.729-1.048-6.505-3.144c-1.774-2.096-2.663-4.681-2.663-7.752
                                      		c0-3.2,0.991-5.864,2.977-7.992c1.982-2.128,4.479-3.192,7.488-3.192c1.022,0,2.127,0.192,3.312,0.576
                                      		c0.896,0.288,1.536,0.433,1.92,0.433c0.769,0,1.296-0.168,1.584-0.505c0.288-0.336,0.496-0.504,0.624-0.504
                                      		c0.256,0,0.384,0.273,0.384,0.817v31.005c0,0.513,0.386,0.785,1.152,0.817C135.134,52.336,135.791,52.495,135.791,52.752z
                                      		 M128.687,33.186c0-5.203-0.023-8.276-0.071-9.219c-0.048-0.941-0.23-1.636-0.55-2.083c-0.699-0.956-1.832-1.436-3.392-1.436
                                      		c-3.948,0-5.924,3.512-5.924,10.535c0,3.097,0.479,5.499,1.435,7.207s2.293,2.562,4.012,2.562c0.892,0,1.729-0.255,2.508-0.766
                                      		s1.33-1.149,1.648-1.916C128.575,37.527,128.687,35.899,128.687,33.186z" id="path0_fill"></path>
                                      </g>
                                  </g>
                              </g>
                              <!-- u -->
                              <g id="path" transform="translate(0.0, -60.0)">
                                  <g id="path1-fill">
                                      <g id="path1_fill-link" transform="translate(1.562453, 1.799842)">
                                          <path transform="scale(8.0)" d="M54.432,41.135V37.2h-0.097c-0.863,1.535-1.968,2.663-3.312,3.384c-1.344,0.721-2.928,1.08-4.752,1.08
                                        		c-1.632,0-2.993-0.217-4.08-0.647c-1.089-0.433-1.968-1.049-2.64-1.849c-0.673-0.8-1.145-1.752-1.416-2.855
                                        		c-0.272-1.104-0.408-2.328-0.408-3.672V16.32h4.08v16.799c0,1.536,0.447,2.753,1.344,3.648s2.128,1.344,3.696,1.344
                                        		c1.248,0,2.327-0.191,3.239-0.575c0.912-0.385,1.672-0.928,2.28-1.633c0.606-0.703,1.062-1.527,1.367-2.472
                                        		c0.305-0.943,0.456-1.977,0.456-3.097V16.32h4.08v24.815H54.432z" id="path1_fill"></path>
                                      </g>
                                  </g>
                              </g>
                              <!-- a -->
                              <g id="path" transform="translate(300.0, -60.0)">
                                  <g id="path2-fill">
                                      <g id="path2_fill-link" transform="translate(0.0, 0.0)">
                                        <path transform="scale(8.0)" d="M53.52,41.664c-1.056,0-1.896-0.296-2.52-0.888s-0.937-1.561-0.937-2.904c-1.121,1.344-2.424,2.312-3.912,2.904
                                        		c-1.488,0.592-3.096,0.888-4.824,0.888c-1.121,0-2.177-0.12-3.168-0.359c-0.992-0.24-1.865-0.641-2.616-1.2
                                        		c-0.752-0.56-1.344-1.279-1.776-2.16c-0.432-0.88-0.648-1.944-0.648-3.192c0-1.408,0.24-2.56,0.72-3.456
                                        		c0.48-0.896,1.111-1.624,1.896-2.184c0.784-0.561,1.68-0.984,2.688-1.272c1.008-0.288,2.04-0.527,3.096-0.72
                                        		c1.12-0.223,2.184-0.392,3.192-0.504s1.896-0.271,2.664-0.48c0.768-0.207,1.375-0.512,1.824-0.911
                                        		c0.448-0.399,0.672-0.984,0.672-1.752c0-0.896-0.168-1.615-0.504-2.16c-0.336-0.543-0.768-0.96-1.296-1.248
                                        		c-0.528-0.288-1.121-0.48-1.776-0.576c-0.656-0.096-1.304-0.145-1.944-0.145c-1.728,0-3.168,0.329-4.32,0.984
                                        		c-1.152,0.656-1.776,1.896-1.872,3.72h-4.08c0.064-1.535,0.384-2.832,0.96-3.888s1.344-1.912,2.304-2.568
                                        		c0.96-0.655,2.064-1.128,3.312-1.416c1.248-0.287,2.56-0.432,3.936-0.432c1.12,0,2.232,0.081,3.336,0.24
                                        		c1.104,0.16,2.104,0.488,3,0.983c0.896,0.497,1.615,1.192,2.16,2.089c0.544,0.896,0.815,2.063,0.815,3.504v12.768
                                        		c0,0.96,0.056,1.665,0.168,2.112c0.112,0.448,0.488,0.672,1.128,0.672c0.353,0,0.769-0.08,1.248-0.24v3.168
                                        		C55.743,41.455,54.768,41.664,53.52,41.664z M47.808,29.16c-0.833,0.176-1.704,0.32-2.616,0.432
                                        		c-0.912,0.112-1.832,0.24-2.76,0.385c-0.929,0.144-1.76,0.376-2.496,0.695c-0.736,0.32-1.336,0.776-1.8,1.368
                                        		c-0.464,0.593-0.696,1.4-0.696,2.424c0,0.672,0.136,1.24,0.408,1.704c0.271,0.464,0.624,0.84,1.056,1.128
                                        		c0.432,0.288,0.943,0.497,1.536,0.624c0.592,0.128,1.192,0.192,1.8,0.192c1.344,0,2.496-0.184,3.456-0.552
                                        		c0.96-0.367,1.744-0.832,2.352-1.393c0.608-0.56,1.056-1.168,1.344-1.824c0.288-0.654,0.432-1.271,0.432-1.848V28.32
                                        		C49.312,28.704,48.639,28.984,47.808,29.16z" id="path2_fill"></path>
                                      </g>
                                  </g>
                              </g>
                              <!-- n -->
                              <g id="path" transform="translate(550, -60.0)">
                                  <g id="path3-fill">
                                      <g id="path3_fill-link" transform="translate(0.895231, 1.129548)">
                                        <path transform="scale(8.0)" d="M41.567,16.32v3.936h0.097c1.695-3.008,4.384-4.512,8.063-4.512c1.632,0,2.992,0.224,4.08,0.672
		c1.088,0.449,1.969,1.073,2.642,1.872c0.672,0.8,1.143,1.752,1.416,2.856c0.271,1.104,0.407,2.328,0.407,3.672v16.319h-4.081v-16.8
		c0-1.536-0.448-2.752-1.344-3.647s-2.128-1.345-3.696-1.345c-1.248,0-2.327,0.192-3.239,0.576c-0.912,0.385-1.673,0.929-2.28,1.632
		c-0.608,0.704-1.064,1.528-1.368,2.473c-0.304,0.943-0.456,1.976-0.456,3.096v14.016h-4.08V16.32H41.567z" id="path3_fill"></path>
                                      </g>
                                  </g>
                              </g>
                              <!-- t -->
                              <g id="path" transform="translate(1101.961058, 0.0)">
                                  <g id="path4-fill">
                                    <g id="path4_fill-link" transform="translate(1.464050, 0.378914)">
                                        <path d="M66.5660938,0 L66.5660938,58.3307832 L118.578943,58.3307832 L118.578943,86.4962206 L66.5660938,86.4962206 L66.5660938,195.991386 C66.5660938,220.990239 73.5948059,235.489384 93.8540683,235.489384 C100.961657,235.601164 108.051991,234.759975 114.940394,232.989499 L116.593763,260.73832 C106.245989,264.410945 95.3094877,266.106585 84.3446399,265.738091 C77.0731367,266.187104 69.7919636,265.033311 63.0083179,262.356283 C56.224767,259.679256 50.1019946,255.544356 45.0665206,250.238613 C34.7301235,239.323047 31.0090964,221.240322 31.0090964,197.325163 L31.0090964,86.4962206 L0,86.4962206 L0,58.3307832 L31.0090964,58.3307832 L31.0090964,9.5829252 L66.5660938,0 L66.5660938,0 Z" id="path4_fill"></path>
                                    </g>
                                  </g>
                              </g>
                            </g>
                        </g>
                        <!-- jupyter logo -->
                        <g id="g">
                            <g id="path" transform="translate(293.890039, 0.000000)" fill="#767677">
                                <g id="path7-fill">
                                    <g id="path7_fill-link" transform="translate(0.804027, 0.898122)">
                                        <path d="M55.8725729,26.9407873 C56.112994,32.507508 54.7095268,38.0208966 51.8398328,42.7836564 C48.9701388,47.5463216 44.7630555,51.3442716 39.750903,53.6969488 C34.7387506,56.0497207 29.1466868,56.8514081 23.682323,56.0007461 C18.2179591,55.1499894 13.1267408,52.6851536 9.05274227,48.9178956 C4.97878167,45.1507324 2.10516279,40.2504267 0.795434247,34.8370715 C-0.514291452,29.4237162 -0.201267275,23.7405742 1.69490178,18.50654 C3.59108031,13.2724111 6.98518793,8.72276194 11.4478702,5.43303983 C15.9104483,2.14331772 21.2411396,0.261373949 26.7654191,0.0253142041 C34.1660443,-0.290925454 41.3885342,2.3662139 46.8462618,7.41298877 C52.3039894,12.4597352 55.5505263,19.4833804 55.8725729,26.9407873 L55.8725729,26.9407873 Z" id="path7_fill"></path>
                                    </g>
                                </g>
                            </g>
                            <g id="path" transform="translate(13.560463, 290.300905)" fill="#F37726">
                                <g id="path8-fill">
                                    <g id="path8_fill-link" transform="translate(0.895231, 1.129548)">
                                        <path d="M173.154323,67.5803588 C98.7328326,67.5803588 33.737818,40.331609 0,0 C12.5651264,36.1900787 35.9831379,67.5490983 67.0126171,89.7365987 C98.042665,111.923625 135.148653,123.842366 173.196036,123.842366 C211.24342,123.842366 248.349407,111.923625 279.379455,89.7365987 C310.408555,67.5490983 333.826851,36.1900787 346.392072,0 C312.571017,40.331609 247.576761,67.5803588 173.154323,67.5803588 L173.154323,67.5803588 Z" id="path8_fill"></path>
                                    </g>
                                </g>
                            </g>
                            <g id="path" transform="translate(13.560463, 39.929864)" fill="#F37726">
                                <g id="path9-fill">
                                    <g id="path9_fill-link" transform="translate(0.800427, 0.470045)">
                                        <path d="M173.236802,56.2621968 C247.65924,56.2621968 312.654444,83.5110412 346.392072,123.842366 C333.826851,87.6525715 310.408555,56.2935519 279.379455,34.1060516 C248.349407,11.9185513 211.24342,0 173.196036,0 C135.148653,0 98.042665,11.9185513 67.0126171,34.1060516 C35.9831379,56.2935519 12.5651264,87.6525715 0,123.842366 C33.8205813,83.5944023 98.8153114,56.2621968 173.236802,56.2621968 L173.236802,56.2621968 Z" id="path9_fill"></path>
                                    </g>
                                </g>
                            </g>
                            <g id="path" transform="translate(13.560463, 401.936652)" fill="#989798">
                                <g id="path10-fill">
                                    <g id="path10_fill-link" transform="translate(1.464050, 1.557624)">
                                        <path d="M70.4188026,33.9448237 C70.7239742,40.9634482 68.9556094,47.9154786 65.3377283,53.9206975 C61.7198471,59.9259165 56.4150371,64.7143478 50.095074,67.679729 C43.7751109,70.6450154 36.7240253,71.6539687 29.8347687,70.5787055 C22.9454174,69.5034422 16.5276174,66.3923686 11.3938324,61.6393657 C6.26012328,56.8863629 2.64131302,50.7051384 0.995595168,43.8784338 C-0.650119843,37.0516345 -0.248726724,29.8862755 2.14895241,23.2895718 C4.54664007,16.6927733 8.83278928,10.9613197 14.4646989,6.82076509 C20.0966749,2.68020101 26.8211634,0.31676739 33.7868313,0.0296826092 C43.103904,-0.354315876 52.191932,3.00010865 59.0587202,9.35761345 C65.9255083,15.7150804 70.0106747,24.5569445 70.4188026,33.9448237 L70.4188026,33.9448237 L70.4188026,33.9448237 Z" id="path10_fill"></path>
                                    </g>
                                </g>
                            </g>
                            <g id="path" transform="translate(0.000000, 45.325792)" fill="#6F7070">
                                <g id="path11-fill">
                                    <g id="path11_fill-link" transform="translate(1.372847, 0.568371)">
                                        <path d="M21.5649874,41.6453987 C17.4782094,41.8233936 13.4308696,40.7754121 9.93528458,38.6343584 C6.43968061,36.49321 3.65303422,33.3552334 1.92802294,29.617436 C0.203007863,25.8796386 -0.38281358,21.7101634 0.244702327,17.6366481 C0.872219182,13.5632276 2.68486563,9.76897199 5.45320552,6.73408851 C8.2215454,3.69924292 11.8211106,1.56025429 15.7963052,0.587877535 C19.7714998,-0.384500167 23.9436007,-0.146558262 27.7845539,1.27158811 C31.6255071,2.68973069 34.9626759,5.22432451 37.3735222,8.55455253 C39.7843686,11.8848279 41.1606272,15.8609623 41.3280497,19.9797577 C41.5521646,25.4921043 39.597227,30.8690838 35.8922216,34.930758 C32.1872163,38.9925269 27.0346603,41.407346 21.5649874,41.6453987 L21.5649874,41.6453987 L21.5649874,41.6453987 Z" id="path11_fill"></path>
                                    </g>
                                </g>
                            </g>
                        </g>
                    </g>
                </g>
            </g>
            <path d="M1832.47628,326.153846 L1869.45866,326.153846 L1869.45866,28.0084615 L1832.47628,28.0084615 L1832.47628,326.153846 Z M2085.04506,326.153846 C2082.52354,312.296385 2081.68303,295.079538 2081.68303,277.442769 L2081.68303,201.436692 C2081.68303,160.704154 2066.55387,118.291923 2004.35623,118.291923 C1978.72071,118.291923 1954.34596,125.430615 1937.53578,136.348615 L1945.94087,160.704154 C1960.22952,151.465846 1979.98147,145.586923 1998.89292,145.586923 C2040.4981,145.586923 2045.1209,175.821385 2045.1209,192.618308 L2045.1209,196.817538 C1966.53333,196.397615 1922.82688,223.272692 1922.82688,272.403692 C1922.82688,301.798308 1943.8396,330.773 1985.02453,330.773 C2014.02208,330.773 2035.8753,316.495615 2047.22217,300.538538 L2048.48293,300.538538 L2051.42471,326.153846 L2085.04506,326.153846 Z M2045.96141,257.706385 C2045.96141,261.485692 2045.1209,265.684923 2043.86014,269.464231 C2037.97657,286.681077 2021.1664,303.478 1994.69038,303.478 C1975.77893,303.478 1959.80926,292.140077 1959.80926,268.204462 C1959.80926,228.731692 2005.61699,221.593 2045.96141,222.432846 L2045.96141,257.706385 Z M2178.7577,326.153846 L2180.43872,292.56 L2181.69948,292.56 C2196.82864,319.435077 2220.36289,330.773 2249.78069,330.773 C2295.16816,330.773 2340.97589,294.659615 2340.97589,222.012923 C2341.39614,160.284231 2305.67452,118.291923 2255.244,118.291923 C2222.46416,118.291923 2198.92991,132.989231 2185.90203,155.665077 L2185.06152,155.665077 L2185.06152,28.0084615 L2148.49939,28.0084615 L2148.49939,273.663462 C2148.49939,291.720154 2147.65888,312.296385 2146.81837,326.153846 L2178.7577,326.153846 Z M2185.06152,208.155462 C2185.06152,202.276538 2186.32228,197.237462 2187.16279,193.038231 C2194.72737,164.903385 2218.26161,147.686538 2243.47687,147.686538 C2282.98078,147.686538 2303.9935,182.540154 2303.9935,223.272692 C2303.9935,269.884154 2280.87951,301.378385 2242.21611,301.378385 C2215.31983,301.378385 2193.88686,283.741615 2186.74254,258.126308 C2185.90203,253.927077 2185.06152,249.307923 2185.06152,244.688769 L2185.06152,208.155462 Z" id="lab" fill="#F37726"></path>
        </g>
    </g>
</svg>
